<svg width="25" height="25" viewBox="0 0 25 25" fill="none" xmlns="http://www.w3.org/2000/svg">
<rect width="25" height="25" fill="#FFA1CA"/>
<path d="M5.93 18.15C5.55 18.15 5.19 18.105 4.85 18.015C4.52 17.935 4.215 17.815 3.935 17.655C3.655 17.485 3.4 17.285 3.17 17.055C2.95 16.815 2.765 16.55 2.615 16.26L4.085 14.73C4.275 15 4.455 15.22 4.625 15.39C4.795 15.55 4.965 15.665 5.135 15.735C5.305 15.805 5.485 15.84 5.675 15.84C5.915 15.84 6.125 15.785 6.305 15.675C6.495 15.555 6.64 15.395 6.74 15.195C6.84 14.995 6.89 14.77 6.89 14.52V9.735H4.955V7.5H11V9.735H9.38V14.805C9.38 15.315 9.29 15.775 9.11 16.185C8.94 16.595 8.7 16.945 8.39 17.235C8.08 17.525 7.715 17.75 7.295 17.91C6.875 18.07 6.42 18.15 5.93 18.15ZM17.6258 18.15C16.8358 18.15 16.1058 18.02 15.4358 17.76C14.7758 17.49 14.2008 17.115 13.7108 16.635C13.2308 16.145 12.8558 15.57 12.5858 14.91C12.3258 14.24 12.1958 13.51 12.1958 12.72C12.1958 11.94 12.3308 11.22 12.6008 10.56C12.8808 9.9 13.2708 9.325 13.7708 8.835C14.2708 8.345 14.8558 7.965 15.5258 7.695C16.2058 7.425 16.9408 7.29 17.7308 7.29C18.2308 7.29 18.7208 7.355 19.2008 7.485C19.6808 7.615 20.1258 7.81 20.5358 8.07C20.9558 8.32 21.3158 8.625 21.6158 8.985L20.0408 10.77C19.7308 10.43 19.3808 10.165 18.9908 9.975C18.6108 9.785 18.1858 9.69 17.7158 9.69C17.3158 9.69 16.9358 9.76 16.5758 9.9C16.2258 10.04 15.9208 10.245 15.6608 10.515C15.4008 10.785 15.1958 11.105 15.0458 11.475C14.8958 11.845 14.8208 12.265 14.8208 12.735C14.8208 13.195 14.8908 13.615 15.0308 13.995C15.1808 14.365 15.3908 14.685 15.6608 14.955C15.9408 15.215 16.2708 15.415 16.6508 15.555C17.0408 15.695 17.4708 15.765 17.9408 15.765C18.2508 15.765 18.5458 15.725 18.8258 15.645C19.1158 15.555 19.3858 15.43 19.6358 15.27C19.8858 15.11 20.1008 14.93 20.2808 14.73L21.5258 16.71C21.2858 16.98 20.9558 17.225 20.5358 17.445C20.1258 17.665 19.6658 17.84 19.1558 17.97C18.6558 18.09 18.1458 18.15 17.6258 18.15Z" fill="black"/>
</svg>
