<svg width="32" height="32" viewBox="0 0 32 32" fill="none" xmlns="http://www.w3.org/2000/svg">
<rect width="32" height="32" rx="2" fill="#FFA1CA"/>
<path d="M7.24 23.7C6.73333 23.7 6.25333 23.64 5.8 23.52C5.36 23.4133 4.95333 23.2533 4.58 23.04C4.20667 22.8133 3.86667 22.5467 3.56 22.24C3.26667 21.92 3.02 21.5667 2.82 21.18L4.78 19.14C5.03333 19.5 5.27333 19.7933 5.5 20.02C5.72667 20.2333 5.95333 20.3867 6.18 20.48C6.40667 20.5733 6.64667 20.62 6.9 20.62C7.22 20.62 7.5 20.5467 7.74 20.4C7.99333 20.24 8.18667 20.0267 8.32 19.76C8.45333 19.4933 8.52 19.1933 8.52 18.86V12.48H5.94V9.5H14V12.48H11.84V19.24C11.84 19.92 11.72 20.5333 11.48 21.08C11.2533 21.6267 10.9333 22.0933 10.52 22.48C10.1067 22.8667 9.62 23.1667 9.06 23.38C8.5 23.5933 7.89333 23.7 7.24 23.7ZM22.8344 23.7C21.781 23.7 20.8077 23.5267 19.9144 23.18C19.0344 22.82 18.2677 22.32 17.6144 21.68C16.9744 21.0267 16.4744 20.26 16.1144 19.38C15.7677 18.4867 15.5944 17.5133 15.5944 16.46C15.5944 15.42 15.7744 14.46 16.1344 13.58C16.5077 12.7 17.0277 11.9333 17.6944 11.28C18.361 10.6267 19.141 10.12 20.0344 9.76C20.941 9.4 21.921 9.22 22.9744 9.22C23.641 9.22 24.2944 9.30667 24.9344 9.48C25.5744 9.65333 26.1677 9.91333 26.7144 10.26C27.2744 10.5933 27.7544 11 28.1544 11.48L26.0544 13.86C25.641 13.4067 25.1744 13.0533 24.6544 12.8C24.1477 12.5467 23.581 12.42 22.9544 12.42C22.421 12.42 21.9144 12.5133 21.4344 12.7C20.9677 12.8867 20.561 13.16 20.2144 13.52C19.8677 13.88 19.5944 14.3067 19.3944 14.8C19.1944 15.2933 19.0944 15.8533 19.0944 16.48C19.0944 17.0933 19.1877 17.6533 19.3744 18.16C19.5744 18.6533 19.8544 19.08 20.2144 19.44C20.5877 19.7867 21.0277 20.0533 21.5344 20.24C22.0544 20.4267 22.6277 20.52 23.2544 20.52C23.6677 20.52 24.061 20.4667 24.4344 20.36C24.821 20.24 25.181 20.0733 25.5144 19.86C25.8477 19.6467 26.1344 19.4067 26.3744 19.14L28.0344 21.78C27.7144 22.14 27.2744 22.4667 26.7144 22.76C26.1677 23.0533 25.5544 23.2867 24.8744 23.46C24.2077 23.62 23.5277 23.7 22.8344 23.7Z" fill="black"/>
</svg>
