<svg width="40" height="40" viewBox="0 0 40 40" fill="none" xmlns="http://www.w3.org/2000/svg">
<rect width="35" height="35" rx="2" fill="#EBF0FF"/>
<path d="M7.54 10.5H13.7V11.26C13.4867 11.3933 13.2467 11.5133 12.98 11.62C12.7133 11.7267 12.4467 11.8 12.18 11.84V22.08C12.18 23.1733 12.0133 24.0667 11.68 24.76C11.36 25.4667 10.9733 26.02 10.52 26.42C10.08 26.8333 9.62667 27.1333 9.16 27.32C8.69333 27.5067 8.31333 27.6333 8.02 27.7L7.64 27.18C7.84 27.02 8.03333 26.8133 8.22 26.56C8.40667 26.32 8.56667 26.0067 8.7 25.62C8.84667 25.2333 8.96 24.7667 9.04 24.22C9.13333 23.66 9.18 22.9867 9.18 22.2V11.84C8.88667 11.7733 8.59333 11.7 8.3 11.62C8.02 11.5267 7.76667 11.4067 7.54 11.26V10.5ZM25.1047 20.3H25.9247C25.978 20.5133 26.0247 20.7733 26.0647 21.08C26.118 21.3733 26.158 21.6933 26.1847 22.04C26.2247 22.3733 26.2514 22.7067 26.2647 23.04C26.278 23.3733 26.2847 23.6733 26.2847 23.94C25.818 24.2333 25.2314 24.44 24.5247 24.56C23.8314 24.68 23.118 24.74 22.3847 24.74C21.278 24.74 20.2714 24.6067 19.3647 24.34C18.4714 24.06 17.7047 23.6267 17.0647 23.04C16.438 22.44 15.9514 21.6867 15.6047 20.78C15.258 19.86 15.0847 18.76 15.0847 17.48C15.0847 16.2133 15.2714 15.1267 15.6447 14.22C16.0314 13.3 16.5447 12.5467 17.1847 11.96C17.8247 11.3733 18.5647 10.9467 19.4047 10.68C20.258 10.4 21.1514 10.26 22.0847 10.26C22.9647 10.26 23.758 10.3267 24.4647 10.46C25.1847 10.58 25.7714 10.7467 26.2247 10.96C26.2247 11.1733 26.2114 11.4467 26.1847 11.78C26.1714 12.1133 26.138 12.4667 26.0847 12.84C26.0447 13.2 25.9914 13.56 25.9247 13.92C25.8714 14.2667 25.818 14.56 25.7647 14.8H24.9247L23.8247 11.78C23.7047 11.7133 23.5114 11.66 23.2447 11.62C22.978 11.58 22.7047 11.56 22.4247 11.56C21.878 11.56 21.3647 11.6733 20.8847 11.9C20.4047 12.1133 19.978 12.46 19.6047 12.94C19.2314 13.42 18.938 14.04 18.7247 14.8C18.5114 15.5467 18.4047 16.4467 18.4047 17.5C18.4047 19.4067 18.7847 20.8733 19.5447 21.9C20.3047 22.9267 21.338 23.44 22.6447 23.44C23.018 23.44 23.3314 23.4133 23.5847 23.36C23.8514 23.2933 24.0314 23.2067 24.1247 23.1L25.1047 20.3Z" fill="#1D1D1A"/>
</svg>
