<svg width="35" height="35" viewBox="0 0 35 35" fill="none" xmlns="http://www.w3.org/2000/svg">
<rect width="35" height="35" rx="2" fill="#EBF0FF"/>
<path d="M7.44596 22.68C6.76596 22.68 6.16596 22.55 5.64596 22.29C5.13596 22.03 4.74096 21.65 4.46096 21.15C4.18096 20.64 4.04096 20.025 4.04096 19.305H6.06596C6.06596 19.625 6.11096 19.905 6.20096 20.145C6.30096 20.375 6.44596 20.555 6.63596 20.685C6.83596 20.805 7.09096 20.865 7.40096 20.865C7.70096 20.865 7.94096 20.81 8.12096 20.7C8.31096 20.58 8.44596 20.415 8.52596 20.205C8.61596 19.985 8.66096 19.725 8.66096 19.425V12H10.686V19.425C10.686 20.475 10.391 21.28 9.80096 21.84C9.22096 22.4 8.43596 22.68 7.44596 22.68ZM12.7562 22.5V12H14.7812L19.6112 19.245V12H21.6362V22.5H19.6112L14.7812 15.27V22.5H12.7562ZM23.6839 22.5V12H30.5839V13.635H25.7089V16.38H30.1339V17.955H25.7089V20.865H30.5839V22.5H23.6839Z" fill="#1D1D1A"/>
</svg>
